<?xml version="1.0" encoding="UTF-8"?>
<svg version="1.1" xmlns="http://www.w3.org/2000/svg" width="300" height="300">
<path d="M0 0 C1.91619141 0.41765625 1.91619141 0.41765625 3.87109375 0.84375 C23.04500588 5.47262369 42.20087391 14.91233748 57 28 C57.84046875 28.7321875 58.6809375 29.464375 59.546875 30.21875 C62.06396087 32.44598961 64.53758161 34.71259647 67 37 C67.66644531 37.60070313 68.33289063 38.20140625 69.01953125 38.8203125 C91.19162848 59.68285613 105.66409119 92.94784654 107.16113281 123.26293945 C107.6583076 162.92997179 99.10127165 199.85059377 70.70703125 229.23046875 C69.81371094 230.14441406 68.92039063 231.05835938 68 232 C67.19949219 232.86238281 66.39898437 233.72476563 65.57421875 234.61328125 C46.56438821 254.61871666 19.1288008 267.82368334 -8 272 C-9.72283203 272.27263672 -9.72283203 272.27263672 -11.48046875 272.55078125 C-28.20415191 274.55484257 -46.66749894 274.17964313 -63 270 C-63.69303223 269.82839355 -64.38606445 269.65678711 -65.10009766 269.47998047 C-74.55264531 267.09929156 -83.0265794 263.83885863 -91.6328125 259.2578125 C-97.50165556 257.06550686 -102.90141218 259.13429948 -108.66625977 261.04125977 C-109.29162628 261.24623077 -109.9169928 261.45120178 -110.56130981 261.66238403 C-111.90652386 262.10400904 -113.2508856 262.54823732 -114.59445381 262.99484444 C-116.72446271 263.70238688 -118.85692953 264.40201013 -120.99021912 265.09959412 C-127.05073948 267.08298922 -133.10643998 269.08092065 -139.16088867 271.08276367 C-142.87534076 272.31031178 -146.59254177 273.52921871 -150.31147575 274.74311638 C-151.7227292 275.20579063 -153.13287368 275.67186232 -154.54184151 276.14145088 C-156.51306184 276.7983958 -158.48758194 277.44435652 -160.46313477 278.08813477 C-161.58341568 278.4581813 -162.70369659 278.82822784 -163.85792542 279.20948792 C-167.03625629 280.00912169 -169.73760533 280.15042903 -173 280 C-174.67029386 275.94136608 -173.19181819 272.5742235 -171.859375 268.640625 C-171.6210495 267.91112137 -171.382724 267.18161774 -171.13717651 266.43000793 C-170.6206221 264.85499938 -170.09906081 263.281626 -169.57305908 261.70974731 C-168.74489485 259.23474304 -167.93054459 256.75553148 -167.11865234 254.27514648 C-164.40700569 246.02803032 -161.60393302 237.81864587 -158.6796875 229.64453125 C-158.16039701 228.18134518 -157.6411894 226.7181297 -157.12207031 225.25488281 C-156.14552182 222.50492353 -155.14422576 219.76575752 -154.12792969 217.03027344 C-153.68610352 215.79438477 -153.24427734 214.55849609 -152.7890625 213.28515625 C-152.39412598 212.21144775 -151.99918945 211.13773926 -151.59228516 210.03149414 C-150.44766251 204.17297004 -153.78787127 199.21569667 -156.3125 194.0625 C-171.82095634 161.46078157 -173.48537727 123.25925949 -161.78173828 89.15332031 C-155.79907595 72.67390689 -147.39279737 58.3395278 -136 45 C-134.98873047 43.78763672 -134.98873047 43.78763672 -133.95703125 42.55078125 C-101.3621649 4.73123687 -48.32104596 -11.014967 0 0 Z " fill="#23A116" transform="translate(183,12)"/>
<path d="M0 0 C1.91619141 0.41765625 1.91619141 0.41765625 3.87109375 0.84375 C23.04500588 5.47262369 42.20087391 14.91233748 57 28 C57.84046875 28.7321875 58.6809375 29.464375 59.546875 30.21875 C62.06396087 32.44598961 64.53758161 34.71259647 67 37 C67.66644531 37.60070313 68.33289063 38.20140625 69.01953125 38.8203125 C91.19162848 59.68285613 105.66409119 92.94784654 107.16113281 123.26293945 C107.6583076 162.92997179 99.10127165 199.85059377 70.70703125 229.23046875 C69.81371094 230.14441406 68.92039063 231.05835938 68 232 C67.19949219 232.86238281 66.39898437 233.72476563 65.57421875 234.61328125 C46.56438821 254.61871666 19.1288008 267.82368334 -8 272 C-9.72283203 272.27263672 -9.72283203 272.27263672 -11.48046875 272.55078125 C-28.20415191 274.55484257 -46.66749894 274.17964313 -63 270 C-63.69303223 269.82839355 -64.38606445 269.65678711 -65.10009766 269.47998047 C-74.55264531 267.09929156 -83.0265794 263.83885863 -91.6328125 259.2578125 C-97.50165556 257.06550686 -102.90141218 259.13429948 -108.66625977 261.04125977 C-109.29162628 261.24623077 -109.9169928 261.45120178 -110.56130981 261.66238403 C-111.90652386 262.10400904 -113.2508856 262.54823732 -114.59445381 262.99484444 C-116.72446271 263.70238688 -118.85692953 264.40201013 -120.99021912 265.09959412 C-127.05073948 267.08298922 -133.10643998 269.08092065 -139.16088867 271.08276367 C-142.87534076 272.31031178 -146.59254177 273.52921871 -150.31147575 274.74311638 C-151.7227292 275.20579063 -153.13287368 275.67186232 -154.54184151 276.14145088 C-156.51306184 276.7983958 -158.48758194 277.44435652 -160.46313477 278.08813477 C-161.58341568 278.4581813 -162.70369659 278.82822784 -163.85792542 279.20948792 C-167.03625629 280.00912169 -169.73760533 280.15042903 -173 280 C-174.67029386 275.94136608 -173.19181819 272.5742235 -171.859375 268.640625 C-171.6210495 267.91112137 -171.382724 267.18161774 -171.13717651 266.43000793 C-170.6206221 264.85499938 -170.09906081 263.281626 -169.57305908 261.70974731 C-168.74489485 259.23474304 -167.93054459 256.75553148 -167.11865234 254.27514648 C-164.40700569 246.02803032 -161.60393302 237.81864587 -158.6796875 229.64453125 C-158.16039701 228.18134518 -157.6411894 226.7181297 -157.12207031 225.25488281 C-156.14552182 222.50492353 -155.14422576 219.76575752 -154.12792969 217.03027344 C-153.68610352 215.79438477 -153.24427734 214.55849609 -152.7890625 213.28515625 C-152.39412598 212.21144775 -151.99918945 211.13773926 -151.59228516 210.03149414 C-150.44766251 204.17297004 -153.78787127 199.21569667 -156.3125 194.0625 C-171.82095634 161.46078157 -173.48537727 123.25925949 -161.78173828 89.15332031 C-155.79907595 72.67390689 -147.39279737 58.3395278 -136 45 C-134.98873047 43.78763672 -134.98873047 43.78763672 -133.95703125 42.55078125 C-101.3621649 4.73123687 -48.32104596 -11.014967 0 0 Z M-117.359375 59.52734375 C-139.04749314 85.10656544 -146.44769367 115.01939357 -145 148 C-143.39980544 167.22939117 -135.58705485 185.11941773 -125 201 C-126.34777789 210.06428091 -129.85431543 218.73778653 -132.83740234 227.37524414 C-133.5242784 229.36956143 -134.20382995 231.36626543 -134.8828125 233.36328125 C-135.28902832 234.54188721 -135.69524414 235.72049316 -136.11376953 236.93481445 C-137.18516767 240.10864674 -137.18516767 240.10864674 -137 244 C-129.50970503 242.02192914 -122.11966425 239.82391635 -114.75 237.4375 C-111.16953591 236.28243248 -107.58696456 235.1347252 -104 234 C-103.32259766 233.78230957 -102.64519531 233.56461914 -101.94726562 233.34033203 C-97.66735462 232.02512695 -94.04887404 230.94860411 -89.921875 233.06640625 C-89.20515625 233.56011719 -88.4884375 234.05382812 -87.75 234.5625 C-64.40719264 249.26498463 -35.18336756 252.3706492 -8.3125 247.9375 C22.51879844 240.86091965 49.36317787 221.87678716 66.375 195.35546875 C82.17826273 169.60200355 87.15722535 138.05071183 80.2578125 108.71875 C72.5006104 78.47672598 53.88876343 53.10823677 27.13867188 36.87011719 C-20.09972525 9.21176475 -80.82049339 18.47360034 -117.359375 59.52734375 Z " fill="#F4F4F3" transform="translate(183,12)"/>
<path d="M0 0 C1.83884766 -0.05994141 1.83884766 -0.05994141 3.71484375 -0.12109375 C7.0625 0.4375 7.0625 0.4375 9.09472656 2.58374023 C12.57065311 7.62469624 14.58487521 13.28515038 16.875 18.9375 C17.39472618 20.17336899 17.91490458 21.40904791 18.43554688 22.64453125 C18.91701172 23.82402344 19.39847656 25.00351563 19.89453125 26.21875 C20.33514893 27.29189453 20.7757666 28.36503906 21.22973633 29.47070312 C22.13119989 32.68224964 22.08212406 34.29608204 21.0625 37.4375 C19.45196458 40.14089874 17.83780949 42.62997543 15.65234375 44.90625 C14.01356101 46.55326223 14.01356101 46.55326223 12.0625 49.4375 C12.20450687 55.35918651 14.1779287 58.82689543 17.625 63.375 C18.0789917 63.98690186 18.5329834 64.59880371 19.00073242 65.22924805 C28.48057423 77.78633343 43.5847573 91.05603368 59.48046875 94.08984375 C64.90780558 93.10144108 66.84105401 89.73163554 70 85.4375 C70.58845703 84.674375 71.17691406 83.91125 71.78320312 83.125 C73.22985571 81.2431755 74.65448682 79.34830697 76.0625 77.4375 C80.27005216 77.99431381 83.64887812 78.96279495 87.46875 80.80078125 C88.46003906 81.27580078 89.45132813 81.75082031 90.47265625 82.24023438 C91.49230469 82.73845703 92.51195312 83.23667969 93.5625 83.75 C94.58214844 84.23662109 95.60179687 84.72324219 96.65234375 85.22460938 C107.17150568 90.30636315 107.17150568 90.30636315 111.0625 93.4375 C112.23906297 100.14390891 110.22659522 106.48260169 107.0625 112.4375 C101.28070155 119.37054151 92.8278333 123.68443334 84.0625 125.4375 C75.46514722 126.09207118 68.38769224 124.82306011 60.3125 121.9375 C59.27262939 121.5765625 58.23275879 121.215625 57.16137695 120.84375 C39.29995186 114.47976277 24.88281385 105.49001863 11.0625 92.4375 C10.33546875 91.77492188 9.6084375 91.11234375 8.859375 90.4296875 C-5.80263418 76.55879393 -22.66153428 54.94873673 -23.47680664 34.26196289 C-23.59503528 21.4571795 -20.92994343 13.92354427 -12.05859375 4.46875 C-8.01960007 0.60083708 -5.49706747 0.09805892 0 0 Z " fill="#F3F4F3" transform="translate(109.9375,85.5625)"/>
<path d="M0 0 C1.91619141 0.41765625 1.91619141 0.41765625 3.87109375 0.84375 C23.04500588 5.47262369 42.20087391 14.91233748 57 28 C57.84046875 28.7321875 58.6809375 29.464375 59.546875 30.21875 C62.06396087 32.44598961 64.53758161 34.71259647 67 37 C67.66644531 37.60070313 68.33289063 38.20140625 69.01953125 38.8203125 C91.19162848 59.68285613 105.66409119 92.94784654 107.16113281 123.26293945 C107.6583076 162.92997179 99.10127165 199.85059377 70.70703125 229.23046875 C69.81371094 230.14441406 68.92039063 231.05835938 68 232 C67.19949219 232.86238281 66.39898437 233.72476563 65.57421875 234.61328125 C46.56438821 254.61871666 19.1288008 267.82368334 -8 272 C-9.72283203 272.27263672 -9.72283203 272.27263672 -11.48046875 272.55078125 C-28.20415191 274.55484257 -46.66749894 274.17964313 -63 270 C-63.69303223 269.82839355 -64.38606445 269.65678711 -65.10009766 269.47998047 C-74.55264531 267.09929156 -83.0265794 263.83885863 -91.6328125 259.2578125 C-97.50165556 257.06550686 -102.90141218 259.13429948 -108.66625977 261.04125977 C-109.29162628 261.24623077 -109.9169928 261.45120178 -110.56130981 261.66238403 C-111.90652386 262.10400904 -113.2508856 262.54823732 -114.59445381 262.99484444 C-116.72446271 263.70238688 -118.85692953 264.40201013 -120.99021912 265.09959412 C-127.05073948 267.08298922 -133.10643998 269.08092065 -139.16088867 271.08276367 C-142.87534076 272.31031178 -146.59254177 273.52921871 -150.31147575 274.74311638 C-151.7227292 275.20579063 -153.13287368 275.67186232 -154.54184151 276.14145088 C-156.51306184 276.7983958 -158.48758194 277.44435652 -160.46313477 278.08813477 C-161.58341568 278.4581813 -162.70369659 278.82822784 -163.85792542 279.20948792 C-167.03625629 280.00912169 -169.73760533 280.15042903 -173 280 C-174.67029386 275.94136608 -173.19181819 272.5742235 -171.859375 268.640625 C-171.6210495 267.91112137 -171.382724 267.18161774 -171.13717651 266.43000793 C-170.6206221 264.85499938 -170.09906081 263.281626 -169.57305908 261.70974731 C-168.74489485 259.23474304 -167.93054459 256.75553148 -167.11865234 254.27514648 C-164.40700569 246.02803032 -161.60393302 237.81864587 -158.6796875 229.64453125 C-158.16039701 228.18134518 -157.6411894 226.7181297 -157.12207031 225.25488281 C-156.14552182 222.50492353 -155.14422576 219.76575752 -154.12792969 217.03027344 C-153.68610352 215.79438477 -153.24427734 214.55849609 -152.7890625 213.28515625 C-152.39412598 212.21144775 -151.99918945 211.13773926 -151.59228516 210.03149414 C-150.44766251 204.17297004 -153.78787127 199.21569667 -156.3125 194.0625 C-171.82095634 161.46078157 -173.48537727 123.25925949 -161.78173828 89.15332031 C-155.79907595 72.67390689 -147.39279737 58.3395278 -136 45 C-134.98873047 43.78763672 -134.98873047 43.78763672 -133.95703125 42.55078125 C-101.3621649 4.73123687 -48.32104596 -11.014967 0 0 Z M-42.09472656 -0.88720703 C-70.00411445 0.91063697 -97.97216643 12.61318209 -119 31 C-119.96550781 31.83273438 -120.93101563 32.66546875 -121.92578125 33.5234375 C-143.10980357 52.13385813 -156.68498279 75.9765585 -164 103 C-164.51240234 104.80017578 -164.51240234 104.80017578 -165.03515625 106.63671875 C-169.81897025 126.86223932 -168.6733787 151.11287301 -163 171 C-162.81808105 171.66161133 -162.63616211 172.32322266 -162.44873047 173.00488281 C-160.04563694 181.53919351 -156.57835192 189.43088857 -152.67871094 197.36791992 C-148.64838143 205.57419462 -148.64838143 205.57419462 -149.75964355 210.08033752 C-150.38038757 211.89210732 -150.38038757 211.89210732 -151.01367188 213.74047852 C-151.23946426 214.40924011 -151.46525665 215.07800171 -151.69789124 215.76702881 C-152.1886995 217.21619205 -152.68437494 218.66371394 -153.18434143 220.10974312 C-153.9750163 222.3970336 -154.75273165 224.68836872 -155.52722168 226.98118591 C-157.17309639 231.8456518 -158.83585364 236.70426048 -160.5 241.5625 C-162.42796943 247.19537178 -164.34902522 252.83046363 -166.25575256 258.47056389 C-167.02331468 260.73054183 -167.80184219 262.98654387 -168.58093262 265.24256897 C-169.04990854 266.62451143 -169.51840017 268.00661836 -169.98632812 269.38891602 C-170.60707214 271.19949242 -170.60707214 271.19949242 -171.24035645 273.04664612 C-172.29201211 276.02826597 -172.29201211 276.02826597 -171 279 C-170.0927417 278.69408936 -169.1854834 278.38817871 -168.25073242 278.07299805 C-158.03532179 274.63250126 -147.80852275 271.22708595 -137.57226562 267.84912109 C-135.8715 267.28768764 -134.17097474 266.72552542 -132.47070312 266.16259766 C-127.64299737 264.56500074 -122.81055488 262.98356811 -117.96987915 261.4256897 C-116.45646004 260.93620468 -114.94468483 260.44160555 -113.43466187 259.94174194 C-111.31879022 259.24258257 -109.19765658 258.56249151 -107.07421875 257.88671875 C-105.87369873 257.49701904 -104.67317871 257.10731934 -103.4362793 256.70581055 C-96.7494213 255.33233229 -91.58609554 257.39544384 -85.625 260.25 C-79.95358954 262.83809341 -74.29137618 265.04087972 -68.3125 266.8125 C-67.3536792 267.10398926 -67.3536792 267.10398926 -66.37548828 267.40136719 C-54.99074948 270.64600349 -43.53605612 271.36423797 -31.75 271.3125 C-30.72836761 271.30876877 -30.72836761 271.30876877 -29.68609619 271.30496216 C-19.17002512 271.24567548 -9.17255889 270.83690174 1 268 C1.78922852 267.7848877 2.57845703 267.56977539 3.39160156 267.34814453 C22.71826265 261.90489945 40.77515324 253.18398258 56 240 C56.76231934 239.3507959 56.76231934 239.3507959 57.54003906 238.68847656 C84.19350373 215.86884358 101.17703315 183.03991356 104.6875 148.125 C104.81536005 146.0846801 104.91759437 144.04266071 105 142 C105.07927734 140.10894531 105.07927734 140.10894531 105.16015625 138.1796875 C106.04481741 106.35078866 95.05278178 73.11139348 74 49 C73.25492188 48.14535156 72.50984375 47.29070313 71.7421875 46.41015625 C69.52472147 43.91080894 67.27125151 41.45045117 65 39 C64.47277344 38.40703125 63.94554687 37.8140625 63.40234375 37.203125 C41.03526951 13.17711175 5.5934944 0.11601903 -26.671875 -1.25 C-31.82755179 -1.37027326 -36.94759306 -1.16436037 -42.09472656 -0.88720703 Z " fill="#070707" transform="translate(183,12)"/>
<path d="M0 0 C-1 2 -1 2 -3.43363953 2.99978638 C-5.05529778 3.52607132 -5.05529778 3.52607132 -6.7097168 4.06298828 C-8.54248421 4.66338425 -8.54248421 4.66338425 -10.41227722 5.27590942 C-11.75778917 5.70779865 -13.10343992 6.13925563 -14.44921875 6.5703125 C-15.82360434 7.01544769 -17.19785495 7.46099985 -18.57197571 7.9069519 C-21.45809105 8.84160042 -24.34595341 9.77058974 -27.23510742 10.69580078 C-30.92965233 11.87950666 -34.61926014 13.07782353 -38.30763531 14.28059578 C-41.14785731 15.20481698 -43.99070764 16.12072637 -46.83439064 17.03423691 C-48.19513943 17.47254782 -49.55503671 17.9135117 -50.9140377 18.35721207 C-52.82105597 18.97854645 -54.7321195 19.58742273 -56.64331055 20.19580078 C-58.27093575 20.71969894 -58.27093575 20.71969894 -59.93144226 21.25418091 C-63.0711139 22.01728438 -65.78224275 22.13940955 -69 22 C-70.18771723 18.57056481 -69.80226223 16.62215325 -68.5625 13.25 C-68.27503906 12.45078125 -67.98757812 11.6515625 -67.69140625 10.828125 C-67.46324219 10.22484375 -67.23507813 9.6215625 -67 9 C-66.01 9 -65.02 9 -64 9 C-64.99 12.63 -65.98 16.26 -67 20 C-66.05608398 19.68361572 -65.11216797 19.36723145 -64.13964844 19.04125977 C-53.89335728 15.60874937 -43.64115 12.19428273 -33.38482666 8.79187012 C-31.12110138 8.04021113 -28.858073 7.28649127 -26.59521484 6.53222656 C-22.71297828 5.23932859 -18.82573581 3.9622422 -14.9375 2.6875 C-13.76864258 2.29699463 -12.59978516 1.90648926 -11.39550781 1.50415039 C-10.32526367 1.15602295 -9.25501953 0.80789551 -8.15234375 0.44921875 C-7.22413818 0.14330811 -6.29593262 -0.16260254 -5.33959961 -0.4777832 C-3 -1 -3 -1 0 0 Z " fill="#0C0C0C" transform="translate(79,270)"/>
<path d="M0 0 C0.66 0.33 1.32 0.66 2 1 C-1.66568293 5.6183463 -6.53604092 7.09881495 -11.875 9.125 C-13.20337891 9.64513672 -13.20337891 9.64513672 -14.55859375 10.17578125 C-28.17367646 15.4716629 -28.17367646 15.4716629 -32 14 C-29.09272898 11.09272898 -25.46660361 10.43841816 -21.625 9.25 C-14.73521358 7.05910845 -8.52217704 4.51437311 -2.1875 1.00390625 C-1.1046875 0.50697266 -1.1046875 0.50697266 0 0 Z " fill="#101010" transform="translate(217,266)"/>
<path d="M0 0 C-1 2 -1 2 -3.8125 3.1875 C-6.85961076 3.96421451 -8.13749363 4.10096399 -11 3 C-4.01886792 -1.33962264 -4.01886792 -1.33962264 0 0 Z " fill="#070707" transform="translate(42,282)"/>
<path d="M0 0 C0 0.66 0 1.32 0 2 C-8.42857143 4.28571429 -8.42857143 4.28571429 -13 4 C-12.67 3.34 -12.34 2.68 -12 2 C-7.70418473 0.73238238 -4.49055702 0 0 0 Z " fill="#010101" transform="translate(130,11)"/>
<path d="M0 0 C-0.33 0.66 -0.66 1.32 -1 2 C-3.06640625 2.6328125 -3.06640625 2.6328125 -5.5625 3.125 C-6.38878906 3.29257812 -7.21507813 3.46015625 -8.06640625 3.6328125 C-8.70449219 3.75398438 -9.34257813 3.87515625 -10 4 C-9.67 3.01 -9.34 2.02 -9 1 C-3.79245283 -1.26415094 -3.79245283 -1.26415094 0 0 Z " fill="#111111" transform="translate(79,270)"/>
</svg>
